<?xml version="1.0" encoding="UTF-8" standalone="no"?>
<!-- Generator: Adobe Illustrator 22.0.0, SVG Export Plug-In . SVG Version: 6.00 Build 0)  -->

<svg
   xmlns:dc="http://purl.org/dc/elements/1.1/"
   xmlns:cc="http://creativecommons.org/ns#"
   xmlns:rdf="http://www.w3.org/1999/02/22-rdf-syntax-ns#"
   xmlns:svg="http://www.w3.org/2000/svg"
   xmlns="http://www.w3.org/2000/svg"
   xmlns:sodipodi="http://sodipodi.sourceforge.net/DTD/sodipodi-0.dtd"
   xmlns:inkscape="http://www.inkscape.org/namespaces/inkscape"
   version="1.1"
   id="Capa_1"
   x="0px"
   y="0px"
   viewBox="0 0 450 240"
   xml:space="preserve"
   sodipodi:docname="b-logo-header-new.svg"
   width="450"
   height="240"
   inkscape:version="0.92.4 (5da689c313, 2019-01-14)"><metadata
   id="metadata5644"><rdf:RDF><cc:Work
       rdf:about=""><dc:format>image/svg+xml</dc:format><dc:type
         rdf:resource="http://purl.org/dc/dcmitype/StillImage" /><dc:title>isologologo header h2</dc:title></cc:Work></rdf:RDF></metadata><defs
   id="defs5642" /><sodipodi:namedview
   pagecolor="#ffffff"
   bordercolor="#666666"
   borderopacity="1"
   objecttolerance="10"
   gridtolerance="10"
   guidetolerance="10"
   inkscape:pageopacity="0"
   inkscape:pageshadow="2"
   inkscape:window-width="1920"
   inkscape:window-height="1017"
   id="namedview5640"
   showgrid="false"
   inkscape:zoom="2.7927215"
   inkscape:cx="206.21442"
   inkscape:cy="104.00046"
   inkscape:window-x="-8"
   inkscape:window-y="-8"
   inkscape:window-maximized="1"
   inkscape:current-layer="Capa_1" />
<style
   type="text/css"
   id="style5437">
	.st0{fill:url(#SVGID_1_);stroke:#DBB763;stroke-width:2.000000e-02;stroke-miterlimit:22.93;}
	.st1{fill:url(#SVGID_2_);stroke:#DBB763;stroke-width:2.000000e-02;stroke-miterlimit:22.93;}
	.st2{fill:#C19236;}
	.st3{fill:#24488B;}
	.st4{fill:#E8AD30;}
	.st5{fill:url(#SVGID_3_);stroke:#DBB763;stroke-width:2.000000e-02;stroke-miterlimit:22.93;}
</style>
<title
   id="title5439">isologologo header h2</title>
<g
   id="puesta_en_escena"
   transform="matrix(4.8381752,0,0,4.8381752,-47.001454,3.332047)">
	
		<linearGradient
   id="SVGID_1_"
   gradientUnits="userSpaceOnUse"
   x1="76.472702"
   y1="22.18"
   x2="76.472702"
   y2="27.299999"
   gradientTransform="matrix(1,0,0,-1,0,50)">
		<stop
   offset="0.14"
   style="stop-color:#E8AD30"
   id="stop5441" />
		<stop
   offset="0.29"
   style="stop-color:#ECB941"
   id="stop5443" />
		<stop
   offset="0.53"
   style="stop-color:#F1C856"
   id="stop5445" />
		<stop
   offset="0.77"
   style="stop-color:#F4D163"
   id="stop5447" />
		<stop
   offset="1"
   style="stop-color:#F5D467"
   id="stop5449" />
	</linearGradient>
	<path
   class="st0"
   d="m 70.7,23.2 c -0.1,0.2 -0.1,0.5 0.1,0.6 1.5,0.6 3.1,-0.1 4.6,0.3 l 0.2,2.6 0.1,4 6.6,-1.1 L 80,27 78.6,25.3 c 0.2,-0.5 3.2,-4.7 3.8,-5.6 -3.1,-0.1 -10.5,1.6 -11.7,3.5 z"
   id="path5452"
   inkscape:connector-curvature="0" />
	
		<linearGradient
   id="SVGID_2_"
   gradientUnits="userSpaceOnUse"
   x1="32.7612"
   y1="22.15"
   x2="32.7612"
   y2="27.280001"
   gradientTransform="matrix(1,0,0,-1,0,50)">
		<stop
   offset="0.14"
   style="stop-color:#E8AD30"
   id="stop5454" />
		<stop
   offset="0.29"
   style="stop-color:#ECB941"
   id="stop5456" />
		<stop
   offset="0.53"
   style="stop-color:#F1C856"
   id="stop5458" />
		<stop
   offset="0.77"
   style="stop-color:#F4D163"
   id="stop5460" />
		<stop
   offset="1"
   style="stop-color:#F5D467"
   id="stop5462" />
	</linearGradient>
	<path
   class="st1"
   d="m 29.7,26.7 -2.7,3.1 6.5,1 v -4.1 -1.9 c 0.1,-1.1 1.8,-0.8 2.7,-0.7 0.5,0 1,0 1.5,0 0.9,-0.1 0.9,0 0.8,-0.8 -1.3,-1.8 -5.9,-2.8 -8.3,-3.3 -0.5,-0.1 -1,-0.1 -1.6,-0.2 -0.5,-0.1 -0.9,-0.1 -1.4,-0.1 -0.4,0.1 -0.2,0 -0.4,0.2 0.5,0.2 3.6,5 3.8,5.4 z"
   id="path5465"
   inkscape:connector-curvature="0" />
	<path
   class="st2"
   d="m 70.4,26.8 c 1,-0.3 3.9,-1.4 5,-1.8 v 5.9 c 0.1,0 0.2,0 0.3,0 v -6.3 c 0,-1.4 -3.3,-0.1 -4.9,-0.7 -0.2,-0.1 -0.2,-0.4 -0.1,-0.6 -0.2,0.2 -0.3,0.4 -0.3,0.6 z"
   id="path5467"
   inkscape:connector-curvature="0"
   style="fill:#c19236" />
	<path
   class="st2"
   d="m 38.8,26.8 c -1,-0.3 -3.9,-1.4 -5,-1.8 v 5.9 c -0.1,0 -0.2,0 -0.3,0 v -6.3 c 0,-1.4 3.3,-0.1 4.9,-0.7 0.2,-0.1 0.2,-0.4 0.1,-0.6 0.2,0.2 0.3,0.4 0.3,0.6 z"
   id="path5469"
   inkscape:connector-curvature="0"
   style="fill:#c19236" />
	<path
   class="st3"
   d="M 72.5,9.2 64,2.8 63.6,2.5 63.3,2.8 v 0 c -2.4,2 -5.4,3.1 -8.5,3 H 54.7 C 52.5,5.8 50.3,5.3 48.3,4.3 47.7,4 47.2,3.7 46.7,3.3 L 46.2,3 46.1,2.9 v 0 0 L 45.8,2.6 45.4,2.9 36.8,9.1 36.6,9.3 v 0.4 c 0,13.4 4.4,22.3 8.8,27.8 2.4,3.1 5.4,5.8 8.9,7.7 l 0.2,0.1 0.2,-0.1 c 3.5,-1.9 6.6,-4.6 9,-7.7 4.5,-5.5 9,-14.5 9,-27.9 V 9.3 Z"
   id="path5471"
   inkscape:connector-curvature="0"
   style="fill:#24488b" />
	<path
   class="st4"
   d="M 73.2,8.2 64.7,1.9 63.5,1 62.4,2 v 0 c -2.1,1.8 -4.9,2.7 -7.7,2.6 v 0 C 51.9,4.7 49.2,3.8 47,2 V 2 L 45.9,0.9 44.6,1.8 36.1,8.1 35.3,8.7 V 9.6 C 35.3,37.1 53,46 53.8,46.4 l 0.4,0.2 0.4,0.2 0.4,-0.2 0.4,-0.2 C 56.2,46 73.9,37.2 74,9.6 V 8.7 Z M 54.6,44.8 c 0,0 -17.5,-8.5 -17.4,-35.2 l 8.5,-6.3 c 2.5,2.1 5.7,3.3 8.9,3.2 v 0 c 3.3,0.1 6.5,-1 9,-3.1 l 8.5,6.3 c 0,26.6 -17.5,35.1 -17.5,35.1 z"
   id="path5473"
   inkscape:connector-curvature="0"
   style="fill:#e8ad30" />
	<polygon
   class="st4"
   points="55.3,38.2 54.6,37.8 53.9,38.2 54.2,37.5 53.5,37 54.3,36.9 54.6,36.2 54.9,36.9 55.7,37 55,37.5 "
   id="polygon5475"
   style="fill:#e8ad30" />
	<polygon
   class="st4"
   points="59.4,38.7 58.7,38.2 58,38.7 58.3,37.9 57.6,37.4 58.4,37.4 58.7,36.6 59,37.4 59.8,37.4 59.1,37.9 "
   id="polygon5477"
   style="fill:#e8ad30" />
	<polygon
   class="st4"
   points="51.2,38.7 50.5,38.2 49.8,38.7 50.1,37.9 49.4,37.4 50.2,37.4 50.5,36.6 50.8,37.4 51.6,37.4 50.9,37.9 "
   id="polygon5479"
   style="fill:#e8ad30" />
	<polygon
   class="st4"
   points="53.3,40.6 52.6,40.1 51.9,40.6 52.2,39.8 51.5,39.3 52.3,39.3 52.6,38.5 52.9,39.3 53.7,39.3 53,39.8 "
   id="polygon5481"
   style="fill:#e8ad30" />
	<polygon
   class="st4"
   points="57,40.6 56.3,40.1 55.7,40.6 55.9,39.8 55.2,39.3 56,39.3 56.3,38.5 56.6,39.3 57.4,39.3 56.8,39.8 "
   id="polygon5483"
   style="fill:#e8ad30" />
	<polygon
   class="st4"
   points="55.3,42.6 54.6,42.1 53.9,42.6 54.2,41.8 53.5,41.3 54.3,41.3 54.6,40.5 54.9,41.3 55.7,41.3 55,41.8 "
   id="polygon5485"
   style="fill:#e8ad30" />
	<polygon
   class="st4"
   points="55.3,34 54.6,33.5 53.9,34 54.2,33.2 53.5,32.7 54.3,32.7 54.6,31.9 54.9,32.7 55.7,32.7 55,33.2 "
   id="polygon5487"
   style="fill:#e8ad30" />
	<polygon
   class="st4"
   points="51.4,34.2 50.7,33.8 50,34.2 50.3,33.4 49.6,32.9 50.4,32.9 50.7,32.2 51,32.9 51.8,32.9 51.1,33.4 "
   id="polygon5489"
   style="fill:#e8ad30" />
	<polygon
   class="st4"
   points="59.1,34.2 58.5,33.8 57.8,34.2 58,33.4 57.4,32.9 58.2,32.9 58.5,32.2 58.7,32.9 59.6,32.9 58.9,33.4 "
   id="polygon5491"
   style="fill:#e8ad30" />
	<polygon
   class="st4"
   points="47.5,34.4 46.8,34 46.2,34.4 46.4,33.7 45.7,33.2 46.6,33.1 46.8,32.4 47.1,33.1 47.9,33.2 47.3,33.7 "
   id="polygon5493"
   style="fill:#e8ad30" />
	<polygon
   class="st4"
   points="63,34.4 62.4,34 61.7,34.4 61.9,33.7 61.3,33.2 62.1,33.1 62.4,32.4 62.6,33.1 63.4,33.2 62.8,33.7 "
   id="polygon5495"
   style="fill:#e8ad30" />
	<polygon
   class="st4"
   points="49.1,36.8 48.5,36.3 47.8,36.8 48,36 47.4,35.5 48.2,35.5 48.5,34.7 48.7,35.5 49.5,35.5 48.9,36 "
   id="polygon5497"
   style="fill:#e8ad30" />
	<polygon
   class="st4"
   points="61.4,36.8 60.7,36.3 60.1,36.8 60.3,36 59.7,35.5 60.5,35.5 60.8,34.7 61,35.5 61.8,35.5 61.2,36 "
   id="polygon5499"
   style="fill:#e8ad30" />
	<polygon
   class="st4"
   points="57.3,36.3 56.7,35.8 56,36.3 56.2,35.5 55.6,35 56.4,35 56.7,34.2 56.9,35 57.7,35 57.1,35.5 "
   id="polygon5501"
   style="fill:#e8ad30" />
	<polygon
   class="st4"
   points="53.2,36.3 52.6,35.8 51.9,36.3 52.1,35.5 51.5,35 52.3,35 52.6,34.2 52.8,35 53.6,35 53,35.5 "
   id="polygon5503"
   style="fill:#e8ad30" />
	<polygon
   class="st4"
   points="49.7,32.1 49,31.6 48.3,32.1 48.6,31.3 47.9,30.8 48.7,30.8 49,30 49.3,30.8 50.1,30.8 49.4,31.3 "
   id="polygon5505"
   style="fill:#e8ad30" />
	<polygon
   class="st4"
   points="60.9,32.1 60.2,31.6 59.5,32.1 59.8,31.3 59.1,30.8 60,30.8 60.2,30 60.5,30.8 61.3,30.8 60.7,31.3 "
   id="polygon5507"
   style="fill:#e8ad30" />
	<polygon
   class="st4"
   points="45.9,32.3 45.3,31.9 44.6,32.3 44.8,31.5 44.2,31 45,31 45.3,30.2 45.5,31 46.3,31 45.7,31.5 "
   id="polygon5509"
   style="fill:#e8ad30" />
	<polygon
   class="st4"
   points="64.6,32.3 64,31.9 63.3,32.3 63.5,31.5 62.9,31 63.7,31 64,30.3 64.2,31 65,31 64.4,31.5 "
   id="polygon5511"
   style="fill:#e8ad30" />
	<polygon
   class="st4"
   points="53.4,31.7 52.7,31.2 52.1,31.7 52.3,30.9 51.7,30.4 52.5,30.4 52.7,29.6 53,30.4 53.8,30.4 53.2,30.9 "
   id="polygon5513"
   style="fill:#e8ad30" />
	<polygon
   class="st4"
   points="57.2,31.7 56.5,31.2 55.8,31.7 56,30.9 55.4,30.4 56.2,30.4 56.5,29.6 56.7,30.4 57.6,30.4 56.9,30.9 "
   id="polygon5515"
   style="fill:#e8ad30" />
	<polygon
   class="st4"
   points="66.2,29.8 65.5,29.3 64.8,29.8 65.1,29 64.4,28.5 65.2,28.5 65.5,27.7 65.8,28.5 66.6,28.5 65.9,29 "
   id="polygon5517"
   style="fill:#e8ad30" />
	<polygon
   class="st4"
   points="44.3,29.8 43.7,29.3 43,29.8 43.3,29 42.6,28.5 43.4,28.5 43.7,27.7 44,28.5 44.8,28.5 44.1,29 "
   id="polygon5519"
   style="fill:#e8ad30" />
	<polygon
   class="st4"
   points="62.5,29.8 61.9,29.3 61.2,29.8 61.4,29 60.8,28.5 61.6,28.5 61.9,27.7 62.1,28.5 63,28.5 62.3,29 "
   id="polygon5521"
   style="fill:#e8ad30" />
	<polygon
   class="st4"
   points="48,29.8 47.3,29.3 46.7,29.8 46.9,29 46.2,28.5 47,28.5 47.3,27.7 47.6,28.5 48.4,28.5 47.8,29 "
   id="polygon5523"
   style="fill:#e8ad30" />
	<polygon
   class="st4"
   points="51.6,29.6 51,29.1 50.3,29.6 50.5,28.8 49.9,28.3 50.7,28.3 51,27.5 51.2,28.3 52,28.3 51.4,28.8 "
   id="polygon5525"
   style="fill:#e8ad30" />
	<polygon
   class="st4"
   points="58.9,29.6 58.2,29.1 57.6,29.6 57.8,28.8 57.2,28.3 58,28.3 58.2,27.5 58.5,28.3 59.3,28.3 58.7,28.8 "
   id="polygon5527"
   style="fill:#e8ad30" />
	<polygon
   class="st4"
   points="55.3,29.4 54.6,28.9 53.9,29.4 54.2,28.6 53.5,28.1 54.3,28.1 54.6,27.3 54.9,28.1 55.7,28.1 55,28.6 "
   id="polygon5529"
   style="fill:#e8ad30" />
	<polygon
   class="st4"
   points="64.1,27.2 63.4,26.8 62.8,27.2 63,26.4 62.3,25.9 63.2,25.9 63.4,25.1 63.7,25.9 64.5,25.9 63.9,26.4 "
   id="polygon5531"
   style="fill:#e8ad30" />
	<polygon
   class="st4"
   points="67.2,27.2 66.6,26.8 65.9,27.2 66.1,26.4 65.5,25.9 66.3,25.9 66.6,25.1 66.8,25.9 67.6,25.9 67,26.4 "
   id="polygon5533"
   style="fill:#e8ad30" />
	<polygon
   class="st4"
   points="43.3,27.2 42.7,26.8 42,27.2 42.2,26.4 41.6,25.9 42.4,25.9 42.7,25.1 42.9,25.9 43.7,25.9 43.1,26.4 "
   id="polygon5535"
   style="fill:#e8ad30" />
	<polygon
   class="st4"
   points="60.6,27.2 59.9,26.8 59.2,27.2 59.5,26.4 58.8,25.9 59.6,25.9 59.9,25.1 60.2,25.9 61,25.9 60.3,26.4 "
   id="polygon5537"
   style="fill:#e8ad30" />
	<polygon
   class="st4"
   points="46.4,27.2 45.8,26.8 45.1,27.2 45.3,26.4 44.7,25.9 45.5,25.9 45.8,25.1 46,25.9 46.9,25.9 46.2,26.4 "
   id="polygon5539"
   style="fill:#e8ad30" />
	<polygon
   class="st4"
   points="50,27.2 49.3,26.8 48.6,27.2 48.9,26.4 48.2,25.9 49,25.9 49.3,25.1 49.6,25.9 50.4,25.9 49.7,26.4 "
   id="polygon5541"
   style="fill:#e8ad30" />
	<polygon
   class="st4"
   points="57,27.2 56.4,26.8 55.7,27.2 55.9,26.4 55.3,25.9 56.1,25.9 56.4,25.1 56.6,25.9 57.5,25.9 56.8,26.4 "
   id="polygon5543"
   style="fill:#e8ad30" />
	<polygon
   class="st4"
   points="53.5,27.2 52.8,26.8 52.2,27.2 52.4,26.4 51.8,25.9 52.6,25.9 52.8,25.1 53.1,25.9 53.9,25.9 53.3,26.4 "
   id="polygon5545"
   style="fill:#e8ad30" />
	<polygon
   class="st4"
   points="41.7,24.2 40.4,23 40.5,17.6 41.7,16.4 45.1,16.4 46.3,17.7 46.3,19.4 44.2,19.4 44.2,18.4 43.9,18.2 42.8,18.2 42.6,18.4 42.5,22.2 42.8,22.4 43.9,22.4 44.2,22.2 44.2,21.3 46.3,21.3 46.3,23 45,24.2 "
   id="polygon5547"
   style="fill:#e8ad30" />
	<path
   class="st4"
   d="m 53.1,16.4 v 1.8 h -0.4 l 1.7,4.3 h 0.5 v 1.8 h -3 v -1.8 h 0.3 L 52,22.1 h -2 l -0.1,0.4 h 0.2 v 1.8 h -2.9 v -1.8 h 0.5 l 1.7,-4.3 H 49 v -1.7 z m -2.5,4.2 h 1 l -0.5,-1.2 z"
   id="path5549"
   inkscape:connector-curvature="0"
   style="fill:#e8ad30" />
	<path
   class="st4"
   d="M 62.1,20.7 V 23 l -1.2,1.2 h -4.8 v -1.8 h 0.5 v -4.3 h -0.5 v -1.8 h 4.8 l 1.2,1.3 v 2 l -0.5,0.5 z M 60,21.3 59.7,21 h -1 v 1.4 h 1 L 60,22.2 Z m 0,-2.8 -0.3,-0.3 h -1 v 1.1 h 1 L 60,19 Z"
   id="path5551"
   inkscape:connector-curvature="0"
   style="fill:#e8ad30" />
	<polygon
   class="st4"
   points="68.8,16.5 68.8,18.2 68.3,18.2 68.3,23 67.1,24.3 64.3,24.2 63,23 63,21.1 65.1,21.1 65.1,22.3 65.4,22.5 65.9,22.5 66.2,22.3 66.2,18.2 65.5,18.2 65.5,16.5 "
   id="polygon5553"
   style="fill:#e8ad30" />
	<polygon
   class="st4"
   points="51.6,12.7 51,12.3 50.3,12.7 50.5,11.9 49.9,11.4 50.7,11.4 51,10.6 51.2,11.4 52,11.4 51.4,11.9 "
   id="polygon5555"
   style="fill:#e8ad30" />
	<polygon
   class="st4"
   points="48,12.5 47.3,12 46.7,12.5 46.9,11.7 46.2,11.2 47,11.2 47.3,10.4 47.6,11.2 48.4,11.2 47.8,11.7 "
   id="polygon5557"
   style="fill:#e8ad30" />
	<polygon
   class="st4"
   points="40.7,12.5 40.1,12 39.4,12.5 39.6,11.7 39,11.2 39.8,11.2 40.1,10.4 40.3,11.2 41.2,11.2 40.5,11.7 "
   id="polygon5559"
   style="fill:#e8ad30" />
	<polygon
   class="st4"
   points="44.4,12.5 43.7,12 43,12.5 43.3,11.7 42.6,11.2 43.4,11.2 43.7,10.4 44,11.2 44.8,11.2 44.1,11.7 "
   id="polygon5561"
   style="fill:#e8ad30" />
	<polygon
   class="st4"
   points="46.4,7.4 45.7,7 45,7.4 45.3,6.7 44.6,6.2 45.4,6.1 45.7,5.4 46,6.1 46.8,6.2 46.1,6.7 "
   id="polygon5563"
   style="fill:#e8ad30" />
	<polygon
   class="st4"
   points="42.9,9.9 42.2,9.4 41.5,9.9 41.8,9.1 41.1,8.6 42,8.6 42.2,7.8 42.5,8.6 43.3,8.6 42.7,9.1 "
   id="polygon5565"
   style="fill:#e8ad30" />
	<polygon
   class="st4"
   points="53.6,10.3 52.9,9.8 52.3,10.3 52.5,9.5 51.8,9 52.7,9 52.9,8.2 53.2,9 54,9 53.4,9.5 "
   id="polygon5567"
   style="fill:#e8ad30" />
	<polygon
   class="st4"
   points="55.3,12.7 54.6,12.3 53.9,12.7 54.2,11.9 53.5,11.4 54.3,11.4 54.6,10.6 54.8,11.4 55.7,11.4 55,11.9 "
   id="polygon5569"
   style="fill:#e8ad30" />
	<polygon
   class="st4"
   points="57.1,10.3 56.4,9.8 55.8,10.3 56,9.5 55.4,9 56.2,9 56.4,8.2 56.7,9 57.5,9 56.9,9.5 "
   id="polygon5571"
   style="fill:#e8ad30" />
	<polygon
   class="st4"
   points="46.6,10.1 45.9,9.6 45.3,10.1 45.5,9.3 44.8,8.8 45.7,8.8 45.9,8 46.2,8.8 47,8.8 46.4,9.3 "
   id="polygon5573"
   style="fill:#e8ad30" />
	<polygon
   class="st4"
   points="50.1,10.1 49.4,9.6 48.8,10.1 49,9.3 48.3,8.8 49.2,8.8 49.4,8 49.7,8.8 50.5,8.8 49.9,9.3 "
   id="polygon5575"
   style="fill:#e8ad30" />
	<polygon
   class="st4"
   points="57.5,12.7 58.2,12.2 58.9,12.7 58.7,11.9 59.3,11.4 58.5,11.4 58.2,10.6 57.9,11.4 57.1,11.4 57.8,11.9 "
   id="polygon5577"
   style="fill:#e8ad30" />
	<polygon
   class="st4"
   points="61.2,12.5 61.8,12 62.5,12.5 62.3,11.7 62.9,11.2 62.1,11.2 61.8,10.4 61.6,11.2 60.8,11.2 61.4,11.7 "
   id="polygon5579"
   style="fill:#e8ad30" />
	<polygon
   class="st4"
   points="68.4,12.5 69.1,12 69.8,12.5 69.5,11.7 70.2,11.2 69.4,11.2 69.1,10.4 68.8,11.2 68,11.2 68.7,11.7 "
   id="polygon5581"
   style="fill:#e8ad30" />
	<polygon
   class="st4"
   points="64.8,12.5 65.5,12 66.1,12.5 65.9,11.7 66.6,11.2 65.7,11.2 65.5,10.4 65.2,11.2 64.4,11.2 65,11.7 "
   id="polygon5583"
   style="fill:#e8ad30" />
	<polygon
   class="st4"
   points="63,7.4 63.7,7 64.3,7.4 64.1,6.7 64.8,6.2 63.9,6.1 63.7,5.4 63.4,6.1 62.6,6.2 63.2,6.7 "
   id="polygon5585"
   style="fill:#e8ad30" />
	<polygon
   class="st4"
   points="66.5,9.9 67.2,9.4 67.8,9.9 67.6,9.1 68.2,8.6 67.4,8.6 67.2,7.8 66.9,8.6 66.1,8.6 66.7,9.1 "
   id="polygon5587"
   style="fill:#e8ad30" />
	<polygon
   class="st4"
   points="59.3,10.1 60,9.6 60.6,10.1 60.4,9.3 61,8.8 60.2,8.8 59.9,8 59.7,8.8 58.9,8.8 59.5,9.3 "
   id="polygon5589"
   style="fill:#e8ad30" />
	<polygon
   class="st4"
   points="62.8,10.1 63.5,9.6 64.1,10.1 63.9,9.3 64.5,8.8 63.7,8.8 63.4,8 63.2,8.8 62.4,8.8 63,9.3 "
   id="polygon5591"
   style="fill:#e8ad30" />
	<polygon
   class="st4"
   points="50.4,15.3 49.8,14.8 49.1,15.3 49.3,14.5 48.7,14 49.5,14 49.8,13.2 50,14 50.8,14 50.2,14.5 "
   id="polygon5593"
   style="fill:#e8ad30" />
	<polygon
   class="st4"
   points="47.2,15.3 46.5,14.8 45.9,15.3 46.1,14.5 45.5,14 46.3,14 46.6,13.2 46.8,14 47.6,14 47,14.5 "
   id="polygon5595"
   style="fill:#e8ad30" />
	<polygon
   class="st4"
   points="44,15.3 43.3,14.8 42.7,15.3 42.9,14.5 42.3,14 43.1,14 43.3,13.2 43.6,14 44.4,14 43.8,14.5 "
   id="polygon5597"
   style="fill:#e8ad30" />
	<polygon
   class="st4"
   points="40.8,15.3 40.1,14.8 39.5,15.3 39.7,14.5 39,14 39.9,14 40.1,13.2 40.4,14 41.2,14 40.6,14.5 "
   id="polygon5599"
   style="fill:#e8ad30" />
	<polygon
   class="st4"
   points="53.6,15.3 53,14.8 52.3,15.3 52.5,14.5 51.9,14 52.7,14 53,13.2 53.3,14 54.1,14 53.4,14.5 "
   id="polygon5601"
   style="fill:#e8ad30" />
	<polygon
   class="st4"
   points="56.8,15.3 56.2,14.8 55.5,15.3 55.8,14.5 55.1,14 55.9,14 56.2,13.2 56.5,14 57.3,14 56.6,14.5 "
   id="polygon5603"
   style="fill:#e8ad30" />
	<polygon
   class="st4"
   points="61.9,15.3 62.6,14.8 63.3,15.3 63,14.5 63.7,14 62.9,14 62.6,13.2 62.3,14 61.5,14 62.2,14.5 "
   id="polygon5605"
   style="fill:#e8ad30" />
	<polygon
   class="st4"
   points="65.2,15.3 65.8,14.8 66.5,15.3 66.3,14.5 66.9,14 66.1,14 65.8,13.2 65.6,14 64.7,14 65.4,14.5 "
   id="polygon5607"
   style="fill:#e8ad30" />
	<polygon
   class="st4"
   points="68.4,15.3 69,14.8 69.7,15.3 69.5,14.5 70.1,14 69.3,14 69,13.2 68.8,14 67.9,14 68.6,14.5 "
   id="polygon5609"
   style="fill:#e8ad30" />
	<polygon
   class="st4"
   points="58.7,15.3 59.4,14.8 60.1,15.3 59.8,14.5 60.5,14 59.7,14 59.4,13.2 59.1,14 58.3,14 59,14.5 "
   id="polygon5611"
   style="fill:#e8ad30" />
	
		<linearGradient
   id="SVGID_3_"
   gradientUnits="userSpaceOnUse"
   x1="54.630001"
   y1="10.5513"
   x2="54.630001"
   y2="25"
   gradientTransform="matrix(1,0,0,-1,0,50)">
		<stop
   offset="0.29"
   style="stop-color:#E8AD30"
   id="stop5613" />
		<stop
   offset="0.64"
   style="stop-color:#EFC24E"
   id="stop5615" />
		<stop
   offset="1"
   style="stop-color:#F5D467"
   id="stop5617" />
	</linearGradient>
	<path
   class="st5"
   d="m 33.7,34.6 c 0.3,1.3 9.2,3.5 10.1,3.7 9.1,2.1 21,1.3 29.5,-2.4 2.6,-1.2 2.1,-0.2 2.2,-5 L 75.4,25 c -1.1,0.4 -3.9,1.5 -4.9,1.8 -0.5,0 -2.8,0.8 -3.5,1 -9.4,2.4 -19.2,2.1 -28.4,-1 C 36,25.9 35,25.4 33.7,25 Z"
   id="path5620"
   inkscape:connector-curvature="0" />
	<path
   class="st3"
   d="m 43.9,34.1 c 0,-0.4 -0.1,-0.9 -0.4,-1.2 -0.1,-0.1 -0.2,-0.3 -0.4,-0.4 l -0.4,-0.3 c -0.1,-0.1 -0.2,-0.2 -0.3,-0.3 -0.1,-0.1 -0.1,-0.2 -0.1,-0.4 0,-0.1 0,-0.3 0.1,-0.3 0.1,-0.1 0.3,-0.1 0.4,0 0.1,0 0.2,0.1 0.3,0.1 l 0.3,0.2 v -1 L 43,30.4 v -0.1 c -0.2,0 -0.4,0 -0.6,0 -0.2,0 -0.3,0.1 -0.5,0.2 -0.1,0.1 -0.2,0.3 -0.3,0.5 -0.1,0.2 -0.1,0.4 -0.1,0.6 0,0.3 0,0.5 0.1,0.7 0.1,0.2 0.2,0.4 0.3,0.5 0.1,0.1 0.2,0.3 0.4,0.4 l 0.4,0.3 c 0.1,0.1 0.2,0.2 0.3,0.3 0.1,0.1 0.1,0.2 0.1,0.4 0,0.1 0,0.3 -0.2,0.4 -0.1,0.1 -0.3,0.1 -0.4,0 -0.1,0 -0.3,-0.1 -0.4,-0.2 -0.1,-0.1 -0.3,-0.1 -0.4,-0.2 v 1.1 c 0.1,0.1 0.2,0.1 0.4,0.2 l 0.4,0.1 c 0.2,0 0.4,0 0.7,0 0.2,0 0.4,-0.1 0.5,-0.3 0.1,-0.1 0.2,-0.3 0.3,-0.5 -0.1,-0.2 -0.1,-0.4 -0.1,-0.7 z"
   id="path5622"
   inkscape:connector-curvature="0"
   style="fill:#24488b" />
	<path
   class="st3"
   d="m 47.9,33.7 c 0,-0.4 0,-0.8 -0.1,-1.2 -0.1,-0.3 -0.2,-0.6 -0.4,-0.9 -0.1,-0.2 -0.3,-0.4 -0.6,-0.6 -0.2,-0.1 -0.5,-0.2 -0.7,-0.3 -0.3,0 -0.5,0 -0.7,0.1 -0.2,0.1 -0.4,0.3 -0.6,0.5 -0.2,0.2 -0.3,0.5 -0.4,0.8 -0.1,0.4 -0.2,0.7 -0.2,1.1 0,0.4 0,0.8 0.1,1.1 0.1,0.3 0.2,0.6 0.3,0.9 0.1,0.2 0.3,0.4 0.5,0.6 0.2,0.2 0.5,0.3 0.8,0.3 0.3,0 0.5,0 0.7,-0.1 0.2,-0.1 0.4,-0.3 0.6,-0.5 0.2,-0.2 0.3,-0.5 0.4,-0.8 0.3,-0.2 0.3,-0.6 0.3,-1 z m -0.9,0 c 0,0.2 0,0.5 -0.1,0.7 0,0.2 -0.1,0.3 -0.2,0.5 -0.1,0.1 -0.2,0.2 -0.3,0.2 -0.1,0 -0.2,0 -0.3,0 -0.3,0 -0.6,-0.3 -0.7,-0.5 -0.2,-0.4 -0.2,-0.8 -0.2,-1.2 0,-0.2 0,-0.5 0.1,-0.7 0,-0.2 0.1,-0.3 0.2,-0.5 0.1,-0.1 0.2,-0.2 0.3,-0.3 0.1,0 0.2,0 0.3,0 0.3,0 0.5,0.2 0.7,0.5 0.1,0.4 0.2,0.9 0.2,1.3 z"
   id="path5624"
   inkscape:connector-curvature="0"
   style="fill:#24488b" />
	<path
   class="st3"
   d="m 51.4,31.5 -0.9,-0.1 -0.5,1.2 -0.2,0.5 c 0,0.2 -0.1,0.3 -0.1,0.5 v 0 c -0.1,-0.3 -0.1,-0.5 -0.2,-0.9 l -0.5,-1.4 -1,-0.1 1.2,3.5 v 1.8 l 0.9,0.1 v -1.8 z"
   id="path5626"
   inkscape:connector-curvature="0"
   style="fill:#24488b" />
	<path
   class="st3"
   d="m 55.3,35.2 c 0,-0.2 0,-0.5 -0.1,-0.7 C 55.1,34.3 55,34.2 54.9,34.1 54.8,34 54.7,33.9 54.5,33.8 l -0.4,-0.2 c -0.1,-0.1 -0.2,-0.1 -0.3,-0.2 -0.1,-0.1 -0.1,-0.2 -0.1,-0.3 0,-0.1 0,-0.3 0.1,-0.4 0.1,-0.1 0.3,-0.2 0.4,-0.1 0.1,0 0.2,0 0.3,0 l 0.3,0.1 v -1 l -0.4,-0.1 h -0.3 c -0.2,0 -0.4,0 -0.6,0.1 -0.2,0.1 -0.3,0.2 -0.5,0.3 -0.1,0.1 -0.2,0.3 -0.3,0.5 -0.1,0.2 -0.1,0.4 -0.1,0.7 0,0.2 0,0.5 0.1,0.7 0.1,0.2 0.2,0.3 0.3,0.5 0.1,0.1 0.2,0.2 0.4,0.3 l 0.4,0.2 c 0.1,0.1 0.2,0.1 0.3,0.2 0.1,0.1 0.1,0.2 0.1,0.3 0,0.2 0,0.3 -0.2,0.4 -0.1,0.1 -0.3,0.1 -0.4,0.1 -0.3,0 -0.6,-0.1 -0.8,-0.2 v 1.1 c 0.1,0 0.3,0.1 0.4,0.1 h 0.4 c 0.2,0 0.5,0 0.7,-0.1 0.2,-0.1 0.4,-0.2 0.5,-0.4 0.1,-0.2 0.2,-0.4 0.3,-0.6 0.2,-0.2 0.2,-0.4 0.2,-0.6 z"
   id="path5628"
   inkscape:connector-curvature="0"
   style="fill:#24488b" />
	<path
   class="st3"
   d="m 59.3,34 c 0,-0.4 0,-0.8 -0.1,-1.2 -0.1,-0.3 -0.2,-0.6 -0.4,-0.8 -0.1,-0.2 -0.3,-0.4 -0.6,-0.5 -0.5,-0.2 -1,-0.2 -1.5,0.1 -0.2,0.2 -0.5,0.4 -0.6,0.6 -0.2,0.3 -0.3,0.6 -0.4,0.9 -0.1,0.4 -0.2,0.8 -0.2,1.2 0,0.4 0,0.7 0.1,1.1 0.1,0.3 0.2,0.6 0.3,0.8 0.1,0.2 0.3,0.4 0.6,0.5 0.2,0.1 0.5,0.2 0.8,0.1 0.3,0 0.5,-0.1 0.8,-0.2 0.2,-0.2 0.5,-0.4 0.6,-0.6 0.2,-0.3 0.3,-0.6 0.4,-0.9 0.2,-0.3 0.2,-0.7 0.2,-1.1 z m -0.9,0.1 c 0,0.3 0,0.5 -0.1,0.8 0,0.2 -0.1,0.4 -0.2,0.5 -0.1,0.1 -0.2,0.2 -0.3,0.3 -0.1,0.1 -0.2,0.1 -0.3,0.1 -0.3,0 -0.6,-0.1 -0.7,-0.4 -0.2,-0.4 -0.2,-0.8 -0.2,-1.2 0,-0.2 0,-0.5 0.1,-0.7 0,-0.2 0.1,-0.3 0.2,-0.5 0.1,-0.1 0.2,-0.2 0.3,-0.3 0.3,-0.2 0.8,-0.1 1,0.2 0,0 0,0 0,0 0.1,0.4 0.2,0.8 0.2,1.2 z"
   id="path5630"
   inkscape:connector-curvature="0"
   style="fill:#24488b" />
	<path
   class="st3"
   d="m 62.4,36.2 -0.1,-1.1 c -0.1,0.1 -0.2,0.1 -0.3,0.2 -0.1,0 -0.2,0.1 -0.3,0.1 -0.3,0.1 -0.6,-0.1 -0.8,-0.3 -0.2,-0.4 -0.3,-0.8 -0.2,-1.2 0,-0.4 0.1,-0.8 0.2,-1.2 0.1,-0.3 0.4,-0.5 0.7,-0.5 0.1,0 0.2,0 0.4,0 l 0.3,0.1 0.1,-1.1 c -0.3,0 -0.5,0 -0.8,0 -0.3,0 -0.6,0.1 -0.8,0.3 -0.2,0.2 -0.5,0.4 -0.6,0.7 -0.2,0.3 -0.3,0.6 -0.4,1 -0.1,0.4 -0.1,0.8 -0.1,1.2 0,0.3 0,0.6 0.1,0.9 0,0.3 0.1,0.5 0.3,0.8 0.1,0.2 0.3,0.4 0.5,0.5 0.3,0.1 0.6,0.2 0.9,0.1 0.3,-0.2 0.6,-0.3 0.9,-0.5 z"
   id="path5632"
   inkscape:connector-curvature="0"
   style="fill:#24488b" />
	<polygon
   class="st3"
   points="63,31 63,36.2 63.9,36 63.9,30.8 "
   id="polygon5634"
   style="fill:#24488b" />
	<path
   class="st3"
   d="m 68,32.5 c 0,-0.4 0,-0.8 -0.1,-1.2 -0.1,-0.3 -0.2,-0.5 -0.4,-0.7 -0.1,-0.2 -0.3,-0.3 -0.6,-0.4 -0.2,-0.1 -0.5,-0.1 -0.7,0 -0.3,0.1 -0.5,0.2 -0.7,0.4 -0.2,0.2 -0.4,0.4 -0.6,0.7 -0.2,0.3 -0.3,0.6 -0.4,1 -0.1,0.4 -0.2,0.8 -0.2,1.2 0,0.4 0,0.7 0.1,1.1 0.1,0.3 0.2,0.5 0.3,0.8 0.1,0.2 0.3,0.3 0.6,0.4 0.3,0.1 0.5,0.1 0.8,0 0.3,-0.1 0.5,-0.2 0.7,-0.3 0.2,-0.2 0.4,-0.4 0.6,-0.7 0.2,-0.3 0.3,-0.6 0.4,-1 C 68,33.3 68,32.9 68,32.5 Z m -0.9,0.3 c 0,0.3 0,0.5 -0.1,0.8 0,0.2 -0.1,0.4 -0.2,0.5 -0.1,0.1 -0.2,0.2 -0.3,0.3 -0.1,0.1 -0.2,0.1 -0.3,0.2 -0.3,0.1 -0.5,0 -0.7,-0.3 -0.2,-0.4 -0.2,-0.8 -0.2,-1.2 0,-0.2 0,-0.5 0.1,-0.7 0,-0.2 0.1,-0.4 0.2,-0.5 0.1,-0.1 0.2,-0.3 0.3,-0.4 0.1,-0.1 0.2,-0.1 0.3,-0.2 0.3,-0.1 0.5,0 0.7,0.3 0.1,0.4 0.2,0.8 0.2,1.2 z"
   id="path5636"
   inkscape:connector-curvature="0"
   style="fill:#24488b" />
</g>
</svg>